# xmcd
#
# Track frame offsets: 
#        150
#        10707
#        22665
#        34985
#        47492
#        58867
#        70052
#        81542
#        92785
#        105620
#        116627
#        130870
#        142802
#        154150
#        165747
#        178220
#        189785
#        200665
#        211802
#        221580
#        235257
#
# Disc length: 3297 seconds
#
# Revision: 0
# Processed by: cddbd v1.5.1PL2 Copyright (c) Steve Scherf et al.
# Submitted via: ExactAudioCopy v0.95a5
#
DISCID=200cdf15
DTITLE=Various Artist - Stompin' at the Savoy: 1944-1961 Things Have Changed 
DYEAR=2004
DGENRE=R&B
TTITLE0=Good Lovin' - H-Bomb Ferguson 
TTITLE1=Easy, Easy Baby - Varetta Dillard 
TTITLE2=Keyhole Blues - Eddie Mack 
TTITLE3=Got Nobody To Tell - T.J. Fowler 
TTITLE4=Forgive Me Baby - Henry Hayes Orchestra 
TTITLE5=My Kind Of Woman - Emitt Slay Trio 
TTITLE6=I Wanna Know - Dolly Cooper 
TTITLE7=Beggin' At Your Mercy - Earl Johnson 
TTITLE8=Mercy Mister Percy - Varetta Dillard 
TTITLE9=Little Daddy - Big Bertha 
TTITLE10=Darlene - The Dreams 
TTITLE11=That Ain't Right - Jimmy Crawford 
TTITLE12=Let's Make Love Tonight - Earl Williams 
TTITLE13=Don't Drop It - Wilbert Harrison 
TTITLE14=Johnny Has Gone - Varetta Dillard 
TTITLE15=Things Have Changed - Sticks McGhee 
TTITLE16=Don't Be Angry - Nappy Brown 
TTITLE17=Chop, Chop, Ching-a-Ling - The Roamers 
TTITLE18=Don't Cry Baby - Little Jimmy Scott 
TTITLE19=Is It Really You? - Nappy Brown 
TTITLE20=Rocking Boy - Chuz Alfred and His Combo 
EXTD=
EXTT0=
EXTT1=
EXTT2=
EXTT3=
EXTT4=
EXTT5=
EXTT6=
EXTT7=
EXTT8=
EXTT9=
EXTT10=
EXTT11=
EXTT12=
EXTT13=
EXTT14=
EXTT15=
EXTT16=
EXTT17=
EXTT18=
EXTT19=
EXTT20=
PLAYORDER=
